<?xml version="1.0" standalone="no"?>
<!DOCTYPE svg PUBLIC "-//W3C//DTD SVG 20010904//EN"
 "http://www.w3.org/TR/2001/REC-SVG-20010904/DTD/svg10.dtd">
<svg version="1.0" xmlns="http://www.w3.org/2000/svg"
 width="700.000000pt" height="700.000000pt" viewBox="0 0 700.000000 700.000000"
 preserveAspectRatio="xMidYMid meet">
<metadata>
Created by potrace 1.11, written by Peter Selinger 2001-2013
</metadata>
<g transform="translate(0.000000,700.000000) scale(0.100000,-0.100000)"
fill="#000000" stroke="none">
<path d="M3460 6577 c-41 -8 -66 -31 -326 -292 -300 -301 -312 -317 -301 -398
14 -102 123 -164 224 -127 15 6 84 67 154 136 l125 125 0 -1178 -1 -1178
-1172 0 c-645 0 -1173 3 -1173 6 0 3 53 60 119 126 127 128 148 163 138 236
-14 106 -134 169 -230 121 -43 -22 -559 -540 -582 -583 -19 -38 -22 -92 -6
-134 15 -39 558 -577 600 -594 82 -35 178 7 212 92 14 35 13 99 -3 129 -5 12
-66 77 -134 146 l-124 126 1177 -1 1178 0 0 -1172 c0 -645 -3 -1173 -6 -1173
-3 0 -57 51 -120 114 -133 132 -162 150 -231 144 -114 -11 -182 -131 -132
-231 21 -41 542 -560 585 -583 41 -21 98 -20 141 2 54 28 575 560 589 601 44
134 -93 256 -224 199 -18 -8 -84 -66 -147 -130 -63 -64 -117 -116 -120 -116
-4 0 -5 2300 -1 2336 1 6 49 10 137 10 125 -1 138 1 150 19 13 18 26 20 155
21 130 1 141 0 154 -19 14 -21 19 -21 880 -21 476 -1 864 -4 862 -8 -1 -4 -55
-61 -120 -127 -64 -66 -122 -132 -127 -147 -6 -15 -10 -47 -8 -72 5 -109 119
-181 224 -142 35 14 566 546 590 591 19 37 20 91 4 135 -11 27 -529 550 -575
580 -74 49 -188 15 -231 -68 -19 -36 -20 -107 -3 -140 6 -12 67 -79 135 -148
l123 -125 -1177 0 -1177 0 -1 1165 c0 641 2 1170 4 1176 1 6 58 -44 125 -111
131 -131 166 -152 240 -142 107 15 169 137 118 234 -21 40 -530 551 -570 573
-42 22 -75 27 -121 17z"/>
<path d="M1572 5648 c-82 -14 -155 -69 -199 -151 -15 -27 -18 -64 -21 -239 -3
-200 -3 -207 17 -220 20 -12 21 -22 21 -163 0 -139 -1 -151 -20 -163 -19 -12
-20 -23 -20 -357 0 -324 1 -347 21 -397 26 -67 77 -120 143 -149 l51 -22 695
-2 c382 0 713 3 735 7 91 19 152 65 198 152 l22 41 0 735 0 735 -22 41 c-35
66 -70 101 -131 131 l-56 27 -697 1 c-383 0 -715 -3 -737 -7z"/>
<path d="M3992 5644 c-100 -22 -178 -101 -201 -202 -6 -31 -9 -294 -8 -752 l2
-705 30 -54 c34 -61 99 -116 159 -132 29 -8 243 -12 716 -13 599 -1 722 1 780
16 59 15 120 72 155 145 l24 48 1 715 c0 800 3 770 -70 853 -23 26 -61 54 -92
67 l-53 24 -698 0 c-461 1 -714 -3 -745 -10z"/>
<path d="M1521 3202 c-25 -10 -66 -38 -92 -64 -83 -83 -80 -45 -77 -869 3
-722 3 -724 25 -765 31 -58 90 -112 148 -133 47 -18 87 -19 770 -18 l720 2 45
23 c60 32 105 76 132 131 l23 46 1 721 c1 679 0 723 -17 770 -25 66 -88 128
-156 154 -53 20 -74 20 -766 19 -638 -1 -717 -2 -756 -17z"/>
<path d="M3980 3211 c-74 -23 -136 -76 -172 -149 l-23 -47 0 -730 0 -730 23
-47 c32 -64 102 -125 166 -142 42 -12 178 -15 747 -14 622 0 701 2 745 17 66
22 117 65 151 126 l28 50 0 740 c0 717 -1 741 -20 780 -31 63 -93 118 -154
138 -49 15 -116 17 -760 16 -388 0 -717 -4 -731 -8z"/>
</g>
</svg>
